<?xml version="1.0" standalone="no"?>
<!DOCTYPE svg PUBLIC "-//W3C//DTD SVG 20010904//EN"
 "http://www.w3.org/TR/2001/REC-SVG-20010904/DTD/svg10.dtd">
<svg version="1.0" xmlns="http://www.w3.org/2000/svg"
 width="60.000000pt" height="60.000000pt" viewBox="0 0 60.000000 60.000000"
 preserveAspectRatio="xMidYMid meet">
<metadata>
Created by potrace 1.16, written by Peter Selinger 2001-2019
</metadata>
<g transform="translate(0.000000,60.000000) scale(0.035928,-0.049587)"
fill="#000000" stroke="none">
<path d="M702 988 c-7 -7 -12 -29 -12 -49 0 -33 -4 -39 -37 -56 -50 -24 -70
-58 -76 -122 -3 -43 -1 -56 14 -69 11 -9 19 -25 19 -36 0 -11 12 -33 27 -48
26 -27 26 -28 7 -42 -10 -8 -36 -19 -57 -26 -41 -12 -50 -27 -61 -103 -11 -72
-3 -77 120 -77 63 0 104 4 104 10 0 6 -30 10 -71 10 l-71 0 4 30 c6 39 -11 39
-18 0 -5 -24 -12 -30 -31 -30 -25 0 -25 1 -18 58 8 65 15 77 51 86 36 9 54 -9
54 -55 0 -22 5 -39 10 -39 6 0 10 11 10 25 0 27 9 32 28 13 10 -10 17 -10 32
0 27 17 30 16 30 -13 0 -14 5 -25 10 -25 6 0 10 18 10 40 0 47 24 66 63 51 32
-13 34 -15 42 -83 7 -58 7 -58 -19 -58 -22 0 -26 4 -26 30 0 17 -4 30 -10 30
-5 0 -10 -13 -10 -30 0 -23 -4 -30 -20 -30 -11 0 -20 -4 -20 -10 0 -16 106
-12 120 4 17 21 2 124 -21 147 -18 18 -16 18 54 21 66 3 72 5 75 26 2 12 -1
22 -7 22 -6 0 -11 9 -11 20 0 18 7 20 66 20 103 0 104 1 104 130 0 67 -4 110
-10 110 -6 0 -10 -33 -10 -80 l0 -80 -142 2 -143 2 124 3 c71 2 130 8 138 15
17 14 18 209 1 226 -8 8 -66 12 -194 12 -194 0 -213 -5 -201 -50 3 -11 1 -20
-4 -20 -5 0 -9 18 -9 40 0 39 1 40 34 40 19 0 38 5 41 10 9 14 -68 13 -83 -2z
m406 -65 l3 -23 -185 0 c-174 0 -186 1 -186 18 0 10 3 22 7 26 4 3 86 5 182 4
174 -3 176 -3 179 -25z m-314 -78 c29 -22 36 -34 36 -61 0 -32 -1 -33 -30 -22
-17 5 -38 7 -48 3 -41 -17 -85 -22 -117 -14 -28 8 -35 15 -35 35 0 87 113 121
194 59z m316 -35 l0 -70 -130 0 -130 0 0 38 c0 41 -23 82 -46 82 -8 0 -14 5
-14 10 0 6 60 10 160 10 l160 0 0 -70z m-322 -66 c45 -12 21 -118 -33 -142
-33 -15 -47 -15 -80 0 -32 14 -55 56 -55 98 0 30 1 30 53 30 28 0 59 5 67 10
18 11 18 11 48 4z"/>
</g>
</svg>
