<?xml version="1.0" standalone="no"?>
<!DOCTYPE svg PUBLIC "-//W3C//DTD SVG 20010904//EN"
 "http://www.w3.org/TR/2001/REC-SVG-20010904/DTD/svg10.dtd">
<svg version="1.0" xmlns="http://www.w3.org/2000/svg"
 width="60.000000pt" height="60.000000pt" viewBox="0 0 60.000000 60.000000"
 preserveAspectRatio="xMidYMid meet">
<metadata>
Created by potrace 1.16, written by Peter Selinger 2001-2019
</metadata>
<g transform="translate(0.000000,60.000000) scale(0.040000,-0.054054)"
fill="#000000" stroke="none">
<path d="M476 774 c-14 -13 -16 -47 -16 -219 0 -192 1 -205 19 -215 26 -13
388 -14 396 0 4 7 -58 10 -179 10 -101 0 -191 3 -200 6 -14 5 -16 33 -16 205
l0 199 300 0 300 0 0 -199 c0 -220 3 -211 -66 -211 -21 0 -33 -4 -29 -10 8
-13 71 -13 96 0 18 10 19 23 19 215 0 172 -2 206 -16 219 -13 14 -55 16 -304
16 -249 0 -291 -2 -304 -16z"/>
<path d="M670 619 c-125 -54 -133 -62 -89 -88 19 -12 40 -21 47 -21 22 0 13
16 -19 31 l-31 15 101 44 101 43 101 -43 100 -44 -36 -19 c-20 -10 -38 -17
-38 -15 -21 42 -22 43 -122 46 -118 3 -127 -2 -123 -72 l3 -51 115 0 115 0 3
28 c2 15 8 27 13 27 13 0 11 -94 -2 -107 -6 -6 -9 -21 -7 -34 4 -34 52 -34 56
0 2 13 -1 28 -7 34 -6 6 -11 34 -11 63 0 49 2 53 37 74 31 18 34 23 22 35 -16
15 -202 95 -221 95 -7 -1 -56 -19 -108 -41z"/>
</g>
</svg>
