<?xml version="1.0" standalone="no"?>
<!DOCTYPE svg PUBLIC "-//W3C//DTD SVG 20010904//EN"
 "http://www.w3.org/TR/2001/REC-SVG-20010904/DTD/svg10.dtd">
<svg version="1.0" xmlns="http://www.w3.org/2000/svg"
 width="60.000000pt" height="60.000000pt" viewBox="0 0 60.000000 60.000000"
 preserveAspectRatio="xMidYMid meet">
<metadata>
Created by potrace 1.16, written by Peter Selinger 2001-2019
</metadata>
<g transform="translate(0.000000,60.000000) scale(0.037037,-0.060000)"
fill="#000000" stroke="none">
<path d="M816 822 c-2 -4 -21 -113 -40 -241 -31 -199 -35 -237 -23 -248 11
-12 16 -12 24 -1 13 16 86 475 78 489 -7 11 -32 12 -39 1z"/>
<path d="M562 676 c-45 -46 -82 -90 -82 -97 0 -24 166 -183 184 -176 9 4 16
11 16 17 0 5 -32 44 -71 85 l-72 75 71 75 c47 49 70 80 66 90 -11 27 -30 16
-112 -69z"/>
<path d="M926 745 c-4 -10 19 -41 66 -90 l71 -75 -72 -75 c-39 -41 -71 -80
-71 -85 0 -6 7 -13 16 -17 18 -7 184 152 184 176 0 17 -159 181 -176 181 -6 0
-14 -7 -18 -15z"/>
</g>
</svg>
