<?xml version="1.0" standalone="no"?>
<!DOCTYPE svg PUBLIC "-//W3C//DTD SVG 20010904//EN"
 "http://www.w3.org/TR/2001/REC-SVG-20010904/DTD/svg10.dtd">
<svg version="1.0" xmlns="http://www.w3.org/2000/svg"
 width="60.000000pt" height="60.000000pt" viewBox="0 0 60.000000 60.000000"
 preserveAspectRatio="xMidYMid meet">
<metadata>
Created by potrace 1.16, written by Peter Selinger 2001-2019
</metadata>
<g transform="translate(0.000000,60.000000) scale(0.028846,-0.044776)"
fill="#000000" stroke="none">
<path d="M1067 1095 c-5 -11 -31 -15 -124 -17 l-118 -3 -3 -29 c-2 -17 -18
-42 -39 -62 -36 -34 -37 -45 -17 -98 4 -12 0 -16 -15 -16 -37 0 -52 -39 -49
-131 3 -76 5 -85 26 -94 20 -9 22 -17 22 -77 0 -83 11 -96 80 -96 42 0 54 4
66 24 16 24 16 75 -1 75 -5 -1 -11 -16 -13 -36 -2 -27 -8 -35 -23 -35 -17 0
-19 8 -19 95 0 123 -18 125 -22 3 -3 -79 -6 -93 -20 -96 -16 -3 -18 11 -20
147 -2 92 -7 151 -13 151 -5 0 -11 -29 -13 -65 -4 -92 -22 -81 -22 14 0 95 7
104 93 107 41 1 81 11 120 28 65 29 67 30 67 16 0 -6 -29 -25 -65 -42 l-65
-32 0 -84 c0 -62 3 -83 13 -79 6 2 12 12 12 23 0 17 8 19 70 19 l70 0 3 -56 3
-55 -61 -53 c-56 -49 -72 -71 -51 -71 4 0 29 18 54 40 52 46 57 48 57 20 0
-11 5 -20 10 -20 6 0 10 9 10 20 0 28 5 26 62 -21 73 -62 73 -36 0 31 l-63 57
3 54 3 54 130 5 130 5 3 49 c2 36 0 47 -10 44 -7 -3 -13 -20 -13 -39 l0 -34
-204 0 -203 0 -3 36 c-2 36 0 38 57 65 69 33 82 46 73 73 -9 31 -33 33 -85 6
-27 -14 -51 -25 -53 -25 -1 0 -1 17 1 37 4 32 0 41 -28 64 -20 17 -30 34 -28
46 3 17 18 18 238 18 l234 0 0 -79 c1 -55 5 -81 14 -84 10 -3 12 17 10 90 l-3
93 -122 3 c-100 2 -123 5 -123 17 0 19 -16 19 -23 0z"/>
</g>
</svg>
