<?xml version="1.0" standalone="no"?>
<!DOCTYPE svg PUBLIC "-//W3C//DTD SVG 20010904//EN"
 "http://www.w3.org/TR/2001/REC-SVG-20010904/DTD/svg10.dtd">
<svg version="1.0" xmlns="http://www.w3.org/2000/svg"
 width="60.000000pt" height="60.000000pt" viewBox="0 0 60.000000 60.000000"
 preserveAspectRatio="xMidYMid meet">
<metadata>
Created by potrace 1.16, written by Peter Selinger 2001-2019
</metadata>
<g transform="translate(0.000000,60.000000) scale(0.037037,-0.054054)"
fill="#000000" stroke="none">
<path d="M530 580 l0 -300 300 0 300 0 0 300 0 300 -300 0 -300 0 0 -300z
m570 235 l0 -35 -270 0 -270 0 0 35 0 35 270 0 270 0 0 -35z m0 -285 l0 -220
-270 0 -270 0 0 220 0 220 270 0 270 0 0 -220z"/>
<path d="M870 681 c0 -28 -18 -36 -46 -20 -22 11 -27 10 -46 -9 -21 -20 -21
-22 -5 -40 22 -24 12 -52 -19 -52 -20 0 -24 -5 -24 -30 0 -25 4 -30 24 -30 31
0 41 -28 19 -52 -16 -18 -16 -20 5 -40 19 -19 24 -20 46 -9 28 16 46 8 46 -20
0 -15 7 -19 35 -19 28 0 35 4 35 19 0 28 18 36 46 20 22 -11 27 -10 46 9 21
20 21 22 5 40 -22 24 -12 52 19 52 20 0 24 5 24 30 0 25 -4 30 -24 30 -31 0
-41 28 -19 52 16 18 16 20 -5 40 -19 19 -24 20 -46 9 -28 -16 -46 -8 -46 20 0
15 -7 19 -35 19 -28 0 -35 -4 -35 -19z m74 -54 c20 -7 35 -6 48 2 19 12 25 2
8 -15 -15 -15 10 -74 32 -74 10 0 18 -4 18 -10 0 -5 -8 -10 -18 -10 -22 0 -47
-59 -32 -74 17 -17 11 -27 -8 -15 -27 17 -75 -1 -83 -32 l-6 -24 -4 24 c-5 31
-53 50 -81 32 -19 -12 -25 -2 -8 15 15 15 -10 74 -32 74 -10 0 -18 5 -18 10 0
6 8 10 18 10 22 0 47 59 32 74 -17 17 -11 27 8 15 28 -18 76 1 81 32 l4 24 6
-24 c4 -15 18 -28 35 -34z"/>
<path d="M873 600 c-44 -18 -57 -81 -24 -121 26 -32 86 -32 112 0 51 63 -14
152 -88 121z"/>
</g>
</svg>
