<?xml version="1.0" standalone="no"?>
<!DOCTYPE svg PUBLIC "-//W3C//DTD SVG 20010904//EN"
 "http://www.w3.org/TR/2001/REC-SVG-20010904/DTD/svg10.dtd">
<svg version="1.0" xmlns="http://www.w3.org/2000/svg"
 width="60.000000pt" height="60.000000pt" viewBox="0 0 60.000000 60.000000"
 preserveAspectRatio="xMidYMid meet">
<metadata>
Created by potrace 1.16, written by Peter Selinger 2001-2019
</metadata>
<g transform="translate(0.000000,60.000000) scale(0.037736,-0.054054)"
fill="#000000" stroke="none">
<path d="M477 863 c-11 -10 -8 -113 3 -113 6 0 10 7 10 15 0 13 40 15 300 15
l300 0 0 -195 c0 -188 -1 -195 -20 -195 -11 0 -20 7 -20 16 0 8 -5 12 -11 9
-6 -4 -9 -31 -8 -64 3 -50 1 -56 -18 -59 -14 -2 -22 4 -26 17 -4 18 -13 21
-62 21 -49 0 -58 -3 -62 -21 -4 -14 -12 -19 -27 -17 -20 3 -21 8 -21 138 l0
135 110 0 109 0 -3 -51 c-1 -31 2 -55 9 -59 8 -5 10 13 8 62 l-3 68 -120 0
-120 0 -5 -95 c-5 -88 -7 -95 -27 -98 -14 -2 -26 4 -33 17 -6 12 -17 21 -24
21 -7 0 -27 7 -45 16 -41 20 -83 11 -118 -27 -16 -16 -36 -29 -45 -29 -16 0
-18 14 -18 165 0 106 -4 165 -10 165 -7 0 -10 -60 -8 -172 l3 -173 28 -3 c22
-3 27 -8 27 -30 1 -68 92 -116 148 -76 12 8 26 13 31 9 14 -8 41 36 41 67 0
23 4 28 25 28 23 0 25 -4 25 -45 l0 -45 40 0 c29 0 40 4 40 15 0 11 12 15 45
15 33 0 45 -4 45 -15 0 -11 11 -15 40 -15 l40 0 0 44 c0 41 2 45 28 48 l27 3
0 245 0 245 -311 3 c-171 1 -313 -1 -317 -5z m613 -38 l0 -25 -300 0 -300 0 0
25 0 25 300 0 300 0 0 -25z m-426 -398 c17 -13 16 -15 -15 -40 l-34 -26 35
-36 c29 -30 32 -37 20 -45 -41 -26 -113 6 -122 54 -14 70 64 131 116 93z"/>
<path d="M594 751 c-36 -16 -64 -60 -64 -103 0 -72 9 -78 111 -78 l90 0 15 36
c18 43 7 89 -30 123 -26 25 -89 36 -122 22z"/>
</g>
</svg>
